<?xml version="1.0"?>
<svg xmlns="http://www.w3.org/2000/svg" width="512" height="512" viewBox="0 0 512 512"><g><path d="M476,120H408V68a28.031,28.031,0,0,0-28-28H36A28.031,28.031,0,0,0,8,68V300a28.031,28.031,0,0,0,28,28h4v56a8,8,0,0,0,13.66,5.66L115.31,328H136v52a28.031,28.031,0,0,0,28,28H396.69l61.65,61.66A8,8,0,0,0,472,464V408h4a28.031,28.031,0,0,0,28-28V148A28.031,28.031,0,0,0,476,120ZM112,312a8.008,8.008,0,0,0-5.66,2.34L56,364.69V320a8,8,0,0,0-8-8H36a12.01,12.01,0,0,1-12-12V68A12.01,12.01,0,0,1,36,56H380a12.01,12.01,0,0,1,12,12V300a12.01,12.01,0,0,1-12,12Zm376,68a12.01,12.01,0,0,1-12,12H464a8,8,0,0,0-8,8v44.69l-50.34-50.35A8.008,8.008,0,0,0,400,392H164a12.01,12.01,0,0,1-12-12V328H380a28.031,28.031,0,0,0,28-28V136h68a12.01,12.01,0,0,1,12,12Z"/><path d="M56,184H360a8,8,0,0,0,0-16H56a8,8,0,0,0,0,16Z"/><path d="M56,152H360a8,8,0,0,0,0-16H56a8,8,0,0,0,0,16Z"/><path d="M56,216H360a8,8,0,0,0,0-16H56a8,8,0,0,0,0,16Z"/><path d="M56,120H360a8,8,0,0,0,0-16H56a8,8,0,0,0,0,16Z"/><path d="M368,240a8,8,0,0,0-8-8H56a8,8,0,0,0,0,16H360A8,8,0,0,0,368,240Z"/></g></svg>
