<svg height="401pt" viewBox="-43 0 401 401.82646" width="401pt" xmlns="http://www.w3.org/2000/svg"><path d="m304.539062 0h-294.125c-5.523437 0-10 4.476562-10 10v381.828125c0 3.96875 2.347657 7.5625 5.984376 9.15625 3.640624 1.59375 7.875.886719 10.792968-1.804687l34.792969-32.085938c3.777344-3.507812 9.605469-3.554688 13.4375-.109375l22.804687 20.355469c11.421876 10.214844 28.710938 10.167968 40.074219-.109375l22.472657-20.277344c3.804687-3.449219 9.601562-3.449219 13.402343 0l22.476563 20.277344c11.363281 10.28125 28.652344 10.328125 40.070312.109375l22.808594-20.355469c3.832031-3.445313 9.660156-3.398437 13.4375.109375l34.789062 32.085938c2.921876 2.691406 7.15625 3.398437 10.792969 1.804687s5.988281-5.1875 5.988281-9.15625v-381.828125c0-5.523438-4.480468-10-10-10zm-10 369-18.011718-16.609375c-11.332032-10.515625-28.8125-10.660156-40.316406-.332031l-22.804688 20.355468c-3.808594 3.40625-9.570312 3.390626-13.359375-.035156l-22.472656-20.277344c-11.402344-10.335937-28.785157-10.335937-40.191407 0l-22.476562 20.28125c-3.789062 3.421876-9.550781 3.4375-13.355469.035157l-22.808593-20.355469c-11.5-10.332031-28.980469-10.1875-40.3125.328125l-18.011719 16.613281v-349h274.121093v349zm0 0"/><path d="m90.628906 155.78125h128.347656c5.523438 0 10-4.476562 10-10s-4.476562-10-10-10h-128.347656c-5.523437 0-10 4.476562-10 10s4.476563 10 10 10zm0 0"/><path d="m90.628906 225.300781h128.347656c5.523438 0 10-4.476562 10-10 0-5.523437-4.476562-10-10-10h-128.347656c-5.523437 0-10 4.476563-10 10 0 5.523438 4.476563 10 10 10zm0 0"/></svg>