<svg xmlns="http://www.w3.org/2000/svg" width="112.854" height="34.5" viewBox="0 0 112.854 34.5"><defs><style>.a{fill:#cf0a10;}.a,.b{fill-rule:evenodd;}.b{fill:#fff;}</style></defs><g transform="translate(-64 -49.957)"><path class="a" d="M133,81.158a3.479,3.479,0,0,1-3.5,3.3h-62.4A3.131,3.131,0,0,1,64,81.158v-27.9a3.131,3.131,0,0,1,3.094-3.3h62.4a3.479,3.479,0,0,1,3.5,3.3Z" transform="translate(0 0)"/><path class="b" d="M433.139,114.869c-1.977,0-2.645-1.515-2.645-3.852,0-2.773,1.514-3.569,2.67-3.569,1.952,0,2.594,1.874,2.594,3.569,0,1.823-.693,3.852-2.619,3.852m1.027-10.758a4.2,4.2,0,0,0-3.672,1.925h-.052V104.5h-4.159V122.29h4.365v-5.905h.051a4.5,4.5,0,0,0,3.8,1.822c3.775,0,5.624-3.286,5.624-6.752,0-3.774-1.772-7.343-5.957-7.343" transform="translate(-291.302 -43.544)"/><path class="b" d="M506.111,115.51c-1,0-1.824-.411-1.824-1.515,0-1.053.8-1.463,1.8-1.694a13.958,13.958,0,0,0,2.7-.718c.1,2.772-.59,3.928-2.67,3.928Zm6.881-6.933c0-3.774-3.055-4.467-6.213-4.467a8.5,8.5,0,0,0-4.236.924,4.045,4.045,0,0,0-2.08,3.569h4.082a1.942,1.942,0,0,1,2.183-1.669c.9,0,2.105.386,2.105,1.387,0,.821-.411,1.053-1.155,1.232-3.03.617-7.754.307-7.754,4.622,0,2.747,1.976,4.03,4.545,4.03a5.872,5.872,0,0,0,4.39-1.642,5.233,5.233,0,0,0,.257,1.258h4.39a7.753,7.753,0,0,1-.514-3.415Z" transform="translate(-350.514 -43.544)"/><path class="b" d="M577.369,106.076l-2.516,8.678H574.8l-2.516-8.678h-4.622l3.44,9.269a18.313,18.313,0,0,1,1.1,3.492,1.549,1.549,0,0,1-1.746,1.488h-1.514v3.544H571c2.927,0,4.544-.36,5.571-3.286l5.263-14.507Z" transform="translate(-404.983 -45.124)"/><path class="b" d="M122.876,96.152a3.149,3.149,0,0,1,.938-1.894,2.969,2.969,0,0,1,2.056-.659,2.434,2.434,0,0,1,1.834.748,2.513,2.513,0,0,1,.719,1.805ZM97.557,99.131a3.777,3.777,0,0,1-.338,1.218,2.411,2.411,0,0,1-.763.925,2.559,2.559,0,0,1-2.642,0,2.409,2.409,0,0,1-.763-.925,3.782,3.782,0,0,1-.338-1.218,11.1,11.1,0,0,1,0-2.554,3.637,3.637,0,0,1,.338-1.2,2.45,2.45,0,0,1,.763-.91,2.564,2.564,0,0,1,2.642,0,2.452,2.452,0,0,1,.763.91,3.632,3.632,0,0,1,.338,1.2,11.014,11.014,0,0,1,0,2.554ZM133.5,95.212a7.42,7.42,0,0,0-1.555-2.92,6.682,6.682,0,0,0-2.7-1.806,11.128,11.128,0,0,0-3.905-.616,8.349,8.349,0,0,0-3.3.631,7.55,7.55,0,0,0-3.815,3.513,4.983,4.983,0,0,0-.352-1.267,4.421,4.421,0,0,0-1.16-1.6,5.082,5.082,0,0,0-1.674-.954,6,6,0,0,0-1.967-.323,6.628,6.628,0,0,0-2.95.587,5.378,5.378,0,0,0-2.011,1.732h-.059V90.252h-5.607v3.454a7.136,7.136,0,0,0-1.012-1.414,7.277,7.277,0,0,0-2.584-1.761,10.76,10.76,0,0,0-7.427,0,7.58,7.58,0,0,0-2.127,1.316v-1.6H86.241a1.843,1.843,0,0,1,.338-1.439,2.108,2.108,0,0,1,1.453-.381,3.459,3.459,0,0,1,.7.073c.235.049.469.092.7.132V84.645q-.676-.029-1.306-.074c-.422-.03-.856-.044-1.307-.044a14.754,14.754,0,0,0-2.95.249,4.208,4.208,0,0,0-2.129,1.189,3.7,3.7,0,0,0-1.057,2.01,9.958,9.958,0,0,0-.147,2.276H78.169v3.581h2.378v11.654h5.812V93.833h1.4a7.392,7.392,0,0,0-.43,1,9.135,9.135,0,0,0-.5,3.023,9.26,9.26,0,0,0,.5,3.038,7.167,7.167,0,0,0,1.511,2.554,7.283,7.283,0,0,0,2.583,1.761,10.76,10.76,0,0,0,7.427,0,7.282,7.282,0,0,0,2.584-1.761,7.088,7.088,0,0,0,1.012-1.419v3.459h5.813V97.443a4.2,4.2,0,0,1,.22-1.483,2.425,2.425,0,0,1,.557-.9,1.79,1.79,0,0,1,.749-.44,2.906,2.906,0,0,1,.793-.117,1.968,1.968,0,0,1,1.012.22,1.518,1.518,0,0,1,.572.616,2.689,2.689,0,0,1,.265.954,11.708,11.708,0,0,1,.059,1.2v7.984H118.3v-3.474a6.875,6.875,0,0,0,1.438,1.786,7.8,7.8,0,0,0,2.715,1.541,10.579,10.579,0,0,0,3.391.529,10.71,10.71,0,0,0,2.51-.294,8.739,8.739,0,0,0,2.26-.881,6.93,6.93,0,0,0,1.834-1.5,6.623,6.623,0,0,0,1.233-2.143h-5.4a2.071,2.071,0,0,1-1.048.822,3.921,3.921,0,0,1-1.4.264,2.706,2.706,0,0,1-2.124-.822,3.579,3.579,0,0,1-.856-2.143H134a14.347,14.347,0,0,0-.5-3.964Z" transform="translate(-11.393 -27.797)"/><path class="b" d="M348.482,82.207c-.051.678-.1,1.357-.151,2.026A7.064,7.064,0,0,1,354.7,90.6l2.074-.163a8.886,8.886,0,0,0-8.291-8.234" transform="translate(-228.623 -25.931)"/><path class="b" d="M349.8,102.268c-.053.678-.108,1.36-.164,2.081a2.445,2.445,0,0,1,2.14,2.122l2.078-.169c-.012-2.013-2.167-4.155-4.054-4.034" transform="translate(-229.676 -42.058)"/></g></svg>